<?xml version="1.0" standalone="no"?>
<!DOCTYPE svg PUBLIC "-//W3C//DTD SVG 20010904//EN"
 "http://www.w3.org/TR/2001/REC-SVG-20010904/DTD/svg10.dtd">
<svg version="1.0" xmlns="http://www.w3.org/2000/svg"
 width="16.000000pt" height="16.000000pt" viewBox="0 0 16.000000 16.000000"
 preserveAspectRatio="xMidYMid meet">
<metadata>
Created by potrace 1.11, written by Peter Selinger 2001-2013
</metadata>
<g transform="translate(0.000000,16.000000) scale(0.002446,-0.002446)"
fill="#000000" stroke="none">
<path d="M3380 6103 c-25 -2 -110 -12 -190 -24 -718 -101 -1366 -471 -1821
-1040 -113 -142 -285 -409 -264 -409 13 0 260 -52 263 -55 2 -2 -7 -21 -19
-43 -22 -37 -27 -40 -76 -44 -56 -5 -93 -28 -93 -58 0 -30 55 -79 126 -112 52
-24 85 -33 146 -36 150 -9 191 45 93 125 l-34 29 25 41 25 42 92 -33 c51 -19
114 -44 142 -56 58 -25 44 -38 133 122 34 62 94 156 132 208 76 103 201 250
211 247 3 -1 32 -33 64 -71 l58 -68 46 5 c33 4 52 12 68 31 44 52 41 68 -28
151 -35 42 -65 79 -67 84 -6 18 242 198 380 275 54 30 72 47 96 89 36 64 108
132 170 160 70 31 199 35 278 8 61 -20 61 -20 167 -1 719 130 1449 -88 1980
-590 655 -620 882 -1567 580 -2419 -47 -134 -165 -371 -240 -483 -74 -110
-169 -230 -267 -335 -67 -72 -76 -86 -76 -120 0 -21 -7 -67 -15 -102 -48 -201
-222 -378 -450 -458 -75 -26 -91 -27 -245 -28 -162 0 -167 1 -260 33 l-95 34
-80 -16 c-267 -52 -637 -48 -900 10 -255 57 -525 165 -728 294 l-66 41 -75
-25 c-88 -31 -216 -35 -311 -11 -152 39 -288 145 -347 271 -63 134 -47 286 41
386 l39 43 -30 50 c-71 120 -170 337 -213 468 l-47 142 129 285 128 285 67 5
68 5 49 80 c29 48 78 108 120 147 61 57 71 71 71 101 0 34 -34 92 -77 130 -18
15 -20 27 -16 85 3 37 0 80 -6 95 l-11 28 -28 -21 c-47 -35 -137 -45 -280 -32
-555 52 -1293 376 -1231 540 l9 23 -32 -18 c-18 -10 -56 -41 -86 -69 -50 -49
-57 -52 -117 -56 -75 -7 -152 -41 -168 -75 -8 -18 -8 -36 1 -69 17 -63 15
-109 -8 -200 l-21 -79 67 -64 67 -64 -152 -866 c-83 -476 -152 -873 -151 -883
0 -21 135 -146 213 -198 235 -155 503 -203 807 -145 l35 6 72 -109 c399 -608
1017 -1039 1727 -1207 217 -51 374 -68 631 -69 255 -1 368 9 570 49 366 73
710 216 1022 425 178 118 310 229 459 381 428 441 689 977 781 1604 24 168 24
572 0 740 -92 627 -353 1163 -781 1604 -149 153 -281 263 -461 383 -472 315
-1033 483 -1595 476 -80 -1 -165 -3 -190 -5z m-2367 -2997 c180 -51 330 -96
333 -99 8 -8 -39 -127 -49 -127 -8 0 -223 62 -411 119 -55 16 -103 28 -107 26
-12 -8 -32 -136 -23 -144 5 -4 47 -18 94 -31 145 -39 393 -109 395 -112 1 -2
-34 -94 -78 -205 l-80 -203 -150 0 -149 0 -117 71 c-64 40 -122 77 -129 84
-12 11 -10 30 7 116 12 56 22 104 24 105 5 5 111 -28 121 -37 5 -4 5 -29 -1
-59 l-10 -50 74 -45 c74 -45 76 -46 155 -43 l80 3 29 75 c28 71 35 100 24 100
-11 0 -448 130 -453 134 -3 3 12 90 32 193 42 212 45 223 54 223 4 0 155 -42
335 -94z"/>
<path d="M3115 5636 c-126 -40 -202 -132 -225 -271 -29 -178 92 -396 264 -476
155 -72 306 -50 409 59 66 71 90 144 85 257 -3 79 -8 100 -40 168 -41 86 -118
174 -186 214 -97 57 -220 77 -307 49z"/>
<path d="M5407 4680 c-142 -24 -257 -139 -308 -308 -13 -45 -13 -45 -101 -61
-32 -6 -48 -5 -48 2 0 6 8 50 17 99 15 79 20 89 41 95 14 3 39 -1 58 -11 l34
-16 34 38 c56 62 86 100 86 107 0 4 -37 6 -82 3 -178 -9 -289 -101 -358 -295
-20 -54 -25 -62 -54 -67 -26 -5 -34 -14 -48 -50 l-16 -44 38 5 38 5 -43 -213
c-41 -204 -44 -215 -75 -242 -70 -63 -72 -25 -15 277 24 132 43 242 41 243 -4
5 -165 -22 -170 -28 -2 -2 -20 -94 -40 -204 -21 -110 -42 -214 -47 -232 -13
-42 -95 -133 -120 -133 -28 0 -25 28 26 290 25 126 45 237 45 245 0 16 -37 14
-129 -9 l-45 -11 -15 -74 c-16 -74 -16 -74 -68 -103 -56 -32 -55 -32 -67 24
-3 14 -17 40 -31 57 -105 124 -382 3 -485 -214 -78 -163 -61 -301 45 -363 56
-32 157 -27 235 13 106 54 199 180 229 311 10 43 19 56 62 88 27 20 49 35 49
32 0 -2 -9 -48 -20 -101 -24 -115 -25 -173 -6 -220 36 -86 151 -72 257 32 44
42 47 44 54 24 10 -31 54 -61 90 -61 17 0 54 11 80 25 27 13 50 23 52 22 1 -2
-11 -74 -28 -161 -16 -87 -29 -160 -27 -161 5 -5 173 26 180 33 3 4 44 196 90
427 l84 419 64 13 c35 7 65 11 67 9 2 -2 -34 -192 -81 -422 -46 -230 -83 -420
-81 -422 5 -5 163 20 175 28 6 4 49 195 96 426 47 233 90 421 97 426 6 4 23 8
38 8 20 0 30 9 48 46 l22 47 -50 -7 c-28 -4 -51 -5 -51 -3 0 13 39 177 44 186
9 14 62 14 89 0 19 -11 27 -5 83 57 52 57 60 70 46 76 -22 9 -64 8 -125 -2z
m-1570 -699 c26 -38 24 -48 -6 -32 -17 10 -24 6 -50 -33 -17 -25 -31 -50 -31
-56 0 -13 61 -40 91 -40 19 0 21 -4 14 -37 -12 -64 -46 -144 -77 -179 -58 -66
-129 -36 -144 63 -13 89 31 262 83 324 21 25 32 30 62 27 27 -2 40 -11 58 -37z"/>
<path d="M5585 4414 c-149 -53 -269 -244 -269 -429 -1 -107 27 -160 97 -189
42 -18 55 -19 112 -9 129 22 230 93 295 207 36 62 36 66 5 66 -14 0 -25 -4
-25 -9 0 -21 -83 -112 -123 -135 -83 -49 -165 -26 -187 52 -5 20 -10 40 -10
43 0 4 21 12 48 18 135 34 242 154 242 272 0 55 -15 86 -52 109 -38 23 -77 24
-133 4z m85 -110 c0 -56 -18 -100 -61 -149 -31 -35 -82 -65 -110 -65 -28 0 28
151 78 209 35 41 70 63 86 54 4 -2 7 -24 7 -49z"/>
<path d="M3080 4284 c-169 -36 -338 -161 -408 -302 -31 -64 -38 -88 -41 -154
-2 -43 1 -78 6 -78 5 0 46 23 91 51 72 44 81 52 72 69 -20 38 -11 112 20 166
32 57 113 134 118 112 1 -7 -34 -193 -78 -412 -44 -220 -78 -402 -75 -404 7
-8 268 37 349 60 96 26 159 63 211 121 126 139 109 336 -33 393 l-52 21 31 29
c37 35 89 138 89 177 0 74 -58 138 -140 156 -63 13 -78 13 -160 -5z m103 -76
c35 -18 46 -40 47 -90 0 -61 -14 -95 -57 -140 -34 -35 -88 -66 -98 -56 -4 4
29 188 50 276 6 24 25 28 58 10z m11 -393 c44 -29 60 -86 42 -155 -15 -58 -53
-110 -108 -150 -39 -29 -135 -66 -144 -57 -3 3 6 65 21 138 47 248 44 237 68
242 34 8 96 -2 121 -18z"/>
<path d="M5651 3229 c-57 -10 -105 -19 -106 -21 -2 -2 -7 -16 -11 -32 l-7 -29
58 7 58 6 -8 -225 c-6 -198 -5 -225 8 -225 34 0 47 29 47 103 0 40 3 136 7
215 7 159 -2 143 86 157 33 5 37 9 37 35 0 27 -3 30 -32 29 -18 -1 -80 -9
-137 -20z"/>
<path d="M5429 3193 c-19 -5 -28 -97 -30 -283 0 -75 -3 -108 -9 -95 -154 352
-147 340 -177 340 -26 0 -28 -3 -34 -51 -4 -28 -10 -144 -14 -258 l-7 -206 24
0 c24 0 25 4 31 68 4 37 7 114 8 172 1 152 7 157 53 48 22 -51 57 -130 78
-176 34 -76 40 -83 60 -76 13 3 25 8 27 10 4 4 20 324 20 432 1 45 -2 81 -6
81 -5 -1 -15 -3 -24 -6z"/>
<path d="M4875 3106 c-79 -35 -135 -144 -142 -275 -6 -106 7 -161 52 -209 30
-33 39 -37 82 -37 121 0 205 131 205 320 0 166 -84 251 -197 201z m84 -62 c13
-9 29 -32 37 -50 18 -44 18 -167 -1 -230 -37 -124 -148 -156 -189 -54 -33 84
-13 237 41 300 41 49 75 59 112 34z"/>
<path d="M4460 3036 l-35 -13 -11 -249 c-5 -137 -9 -252 -7 -255 1 -4 13 -4
26 -2 22 4 25 11 31 71 3 37 6 86 6 108 0 43 11 54 49 54 32 0 49 -33 60 -113
6 -43 11 -80 11 -83 0 -2 14 -4 30 -4 17 0 30 3 30 8 0 40 -32 189 -45 208
-14 22 -14 26 0 40 60 60 67 190 12 229 -26 18 -107 19 -157 1z m124 -68 c20
-28 20 -61 1 -103 -16 -33 -40 -49 -87 -59 l-27 -6 6 87 c3 49 11 91 17 95 24
16 75 8 90 -14z"/>
<path d="M4197 2996 c-37 -7 -69 -15 -72 -18 -6 -6 -24 -338 -25 -450 l0 -66
28 7 27 7 3 109 c2 69 7 112 14 116 7 4 38 11 70 14 l58 7 0 35 c0 28 -3 33
-17 29 -10 -3 -39 -8 -65 -12 l-48 -6 0 79 0 79 71 11 c39 6 72 13 74 15 2 2
6 15 10 31 7 26 5 27 -26 26 -19 -1 -64 -7 -102 -13z"/>
<path d="M3193 2846 c-314 -61 -575 -114 -579 -119 -4 -4 12 -5 37 -2 24 3
276 19 559 35 283 17 534 33 558 36 l42 5 0 80 c0 76 -1 79 -22 78 -13 -1
-280 -51 -595 -113z"/>
<path d="M3330 2651 c-245 -47 -431 -87 -414 -89 17 -2 215 8 440 22 225 15
419 26 432 26 21 0 22 4 22 65 0 56 -3 65 -17 64 -10 -1 -218 -40 -463 -88z"/>
<path d="M3495 2495 c-148 -30 -285 -56 -304 -60 -77 -15 -9 -15 225 0 137 8
282 18 322 21 l72 6 0 44 c0 39 -2 44 -22 43 -13 -1 -144 -25 -293 -54z"/>
<path d="M2188 2244 c-114 -27 -199 -90 -246 -178 -23 -44 -27 -64 -27 -136 0
-74 4 -93 29 -145 154 -314 665 -359 806 -71 29 59 32 71 29 143 -3 61 -10 91
-33 138 -59 120 -194 219 -343 250 -83 18 -140 18 -215 -1z"/>
</g>
</svg>
